<?xml version="1.0" standalone="no"?>
<!DOCTYPE svg PUBLIC "-//W3C//DTD SVG 20010904//EN"
 "http://www.w3.org/TR/2001/REC-SVG-20010904/DTD/svg10.dtd">
<svg version="1.0" xmlns="http://www.w3.org/2000/svg"
 width="300.000000pt" height="300.000000pt" viewBox="0 0 300.000000 300.000000"
 preserveAspectRatio="xMidYMid meet">
<metadata>
Created by potrace 1.10, written by Peter Selinger 2001-2011
</metadata>
<g transform="translate(0.000000,300.000000) scale(0.100000,-0.100000)"
fill="#000000" stroke="none">
<path d="M1350 2773 c-503 -52 -935 -397 -1094 -873 -65 -196 -83 -403 -52
-610 70 -460 398 -852 846 -1008 164 -57 228 -67 430 -67 169 1 194 3 293 28
310 80 550 237 730 475 457 608 298 1461 -347 1866 -231 145 -537 217 -806
189z m395 -58 c350 -81 649 -301 818 -602 111 -196 157 -365 162 -593 4 -160
0 -199 -42 -359 -53 -204 -150 -374 -305 -536 -192 -201 -443 -328 -732 -371
-412 -61 -865 111 -1135 431 -276 328 -362 784 -226 1193 126 378 433 684 806
806 77 24 235 54 319 58 79 5 263 -10 335 -27z"/>
<path d="M1345 2630 c-316 -33 -641 -231 -821 -502 -62 -92 -139 -258 -164
-353 -31 -114 -38 -310 -16 -441 68 -399 306 -719 659 -884 286 -134 632 -140
920 -15 337 145 580 435 657 783 22 99 23 112 11 112 -5 0 -11 -19 -15 -42
-11 -68 -71 -239 -114 -325 -102 -202 -267 -363 -485 -472 -163 -82 -277 -111
-459 -118 -210 -9 -360 23 -542 113 -121 61 -206 122 -301 219 -423 429 -431
1117 -19 1554 227 242 567 377 876 350 175 -15 334 -69 454 -154 130 -93 242
-273 269 -433 6 -35 4 -42 -9 -42 -18 0 -21 16 -5 26 7 4 7 9 2 13 -6 3 -15
29 -22 56 -30 119 -121 261 -219 341 -85 70 -186 116 -327 151 -90 22 -319 22
-421 -1 -376 -81 -681 -341 -812 -691 -55 -145 -66 -211 -65 -390 0 -139 4
-173 26 -257 52 -198 146 -365 286 -507 124 -127 255 -210 421 -268 133 -47
208 -58 380 -57 133 1 169 5 250 26 52 14 111 33 130 42 19 9 26 14 15 10
-154 -45 -201 -55 -294 -65 -466 -51 -931 228 -1115 668 -77 184 -107 447 -72
622 104 513 592 896 1105 868 306 -17 538 -153 649 -380 53 -109 55 -103 -43
-180 -47 -37 -89 -67 -93 -67 -4 1 31 37 78 81 47 44 80 79 74 77 -6 -2 -51
-40 -100 -86 -49 -46 -80 -80 -69 -76 18 7 19 6 6 -10 -13 -15 -16 -16 -30 -2
-13 14 -13 18 -1 29 8 8 54 49 103 92 48 43 85 80 82 83 -2 2 -49 -37 -105
-88 -55 -51 -103 -90 -106 -87 -4 3 19 29 49 57 31 28 75 75 98 103 28 35 9
19 -59 -47 -56 -55 -105 -97 -109 -93 -4 4 38 53 92 107 55 55 96 100 92 100
-4 0 -49 -43 -99 -95 -49 -52 -93 -95 -97 -95 -3 0 -12 4 -20 9 -12 8 -3 25
45 88 81 105 107 143 102 149 -3 2 -40 -46 -83 -106 -44 -61 -82 -110 -86
-110 -3 0 -16 9 -28 20 -13 10 -39 24 -58 31 -19 6 -32 16 -30 23 63 151 97
241 94 249 -1 5 -25 -48 -53 -118 -27 -70 -54 -125 -59 -123 -6 1 -9 5 -8 8
51 120 93 234 91 242 -2 6 -17 -24 -33 -68 -40 -111 -74 -188 -81 -181 -3 3
15 62 41 132 26 69 45 129 42 131 -2 3 -17 -30 -32 -73 -16 -43 -38 -103 -51
-135 -19 -48 -21 -69 -17 -142 5 -78 4 -86 -12 -86 -16 0 -17 8 -12 93 5 72
15 120 51 225 24 72 41 132 37 132 -4 0 -25 -57 -47 -127 -27 -89 -44 -127
-55 -128 -38 -6 -40 7 -24 136 17 137 18 155 9 146 -4 -3 -13 -66 -20 -138 -8
-73 -16 -135 -19 -137 -14 -15 -14 18 0 138 9 72 14 134 11 137 -2 3 -7 -10
-10 -28 -6 -36 -26 -220 -26 -239 0 -7 -8 -9 -22 -4 -13 4 -33 7 -45 6 -20 -2
-21 4 -28 115 -4 64 -11 128 -16 142 -9 26 -9 17 7 -176 4 -55 3 -83 -4 -83
-6 0 -13 44 -17 104 -4 58 -11 120 -16 138 -9 34 -8 21 7 -167 l6 -81 -33 -2
c-19 -1 -42 -5 -51 -8 -12 -4 -19 2 -23 18 -37 160 -56 233 -64 241 -5 5 6
-51 24 -124 19 -74 30 -138 26 -142 -5 -5 -11 -1 -14 9 -32 113 -79 255 -83
251 -3 -3 13 -63 35 -133 26 -83 37 -132 31 -138 -7 -7 -10 -5 -10 5 -1 10 -3
10 -11 -3 -5 -10 -14 -18 -18 -18 -4 0 -34 56 -66 125 -32 69 -61 123 -64 120
-3 -3 22 -60 54 -126 50 -101 57 -121 45 -129 -8 -5 -18 -10 -22 -10 -6 0
-119 202 -131 235 -3 6 -7 8 -10 5 -3 -3 23 -59 59 -123 69 -126 69 -127 55
-127 -6 0 -35 44 -65 98 -57 100 -92 152 -83 121 3 -9 34 -64 70 -122 55 -90
63 -108 51 -118 -18 -15 -14 -19 -99 106 -38 55 -70 102 -72 104 -2 2 -5 2 -8
-1 -4 -4 13 -29 122 -180 18 -25 29 -49 24 -52 -5 -4 -43 43 -85 103 -42 60
-81 113 -88 117 -13 8 1 -13 95 -144 45 -61 57 -86 49 -94 -9 -9 -37 16 -111
93 -55 57 -100 100 -101 95 0 -5 44 -53 97 -107 53 -54 93 -102 89 -106 -4 -4
-52 40 -106 97 -55 58 -99 101 -100 95 0 -5 44 -53 97 -107 53 -54 94 -101 90
-105 -4 -4 -51 37 -105 90 -54 53 -102 97 -107 97 -6 -1 37 -45 95 -100 57
-54 101 -102 97 -106 -4 -4 -52 36 -106 89 -54 53 -102 97 -107 97 -5 -1 38
-46 95 -101 l103 -100 -18 -22 c-11 -12 -22 -24 -25 -27 -3 -3 -11 -20 -18
-37 -7 -18 -17 -30 -22 -27 -5 3 -6 -2 -3 -10 3 -9 1 -16 -6 -16 -6 0 -9 -4
-5 -10 3 -5 -3 -18 -13 -28 -10 -10 -17 -23 -15 -29 2 -6 -3 -37 -11 -68 -8
-33 -14 -93 -13 -140 l2 -83 -40 -6 c-22 -3 -85 -11 -140 -18 -55 -7 -88 -14
-73 -16 15 -2 75 4 133 12 58 9 110 16 115 16 20 0 9 -19 -12 -23 -20 -4 -19
-4 5 -6 21 -1 27 -6 27 -25 0 -22 -8 -26 -137 -57 -76 -18 -129 -34 -118 -36
11 -2 75 12 143 31 80 22 122 29 122 22 0 -17 76 -172 88 -180 5 -3 -8 27 -29
67 -52 100 -72 183 -72 297 1 188 77 355 215 473 61 52 147 97 233 123 67 21
296 27 314 9 6 -7 6 -37 -2 -87 -10 -74 -10 -78 11 -96 l22 -19 -39 -12 c-21
-6 -45 -19 -52 -28 -12 -15 -12 -16 6 -9 11 4 34 13 50 19 17 6 40 17 53 25
12 8 22 10 22 6 1 -5 8 4 16 20 12 21 14 43 9 87 -8 65 -5 68 49 45 47 -19 50
-29 23 -69 -13 -19 -30 -49 -37 -67 -12 -29 -11 -33 20 -65 28 -28 35 -32 46
-20 15 14 19 39 7 32 -5 -3 -18 -1 -30 4 -46 17 -19 89 28 74 16 -6 26 -2 39
15 l17 22 51 -49 c59 -54 137 -185 147 -244 4 -21 10 -41 15 -44 15 -9 -19 99
-50 159 -17 32 -28 62 -23 66 29 27 178 118 185 114 14 -9 3 -18 -86 -72 -47
-29 -86 -55 -86 -58 0 -6 4 -4 98 54 40 24 76 42 79 38 8 -8 11 -6 -84 -61
-46 -25 -83 -49 -83 -52 0 -2 38 16 85 42 63 34 85 42 85 31 0 -9 -32 -33 -75
-57 -41 -22 -75 -43 -75 -45 0 -2 31 12 70 31 76 38 80 40 80 25 0 -5 -33 -25
-72 -45 -86 -41 -52 -35 42 8 100 45 131 61 136 69 3 5 -7 3 -22 -2 -37 -14
-44 -3 -14 21 l25 20 -24 -6 c-21 -7 -23 -5 -19 19 6 29 -3 34 -21 12 -9 -11
-9 -15 0 -18 7 -2 10 -11 6 -21 -11 -29 -25 -19 -25 18 0 25 5 36 19 40 13 4
18 13 15 23 -3 9 -12 46 -21 82 -60 238 -242 426 -485 500 -149 46 -295 63
-425 50z m865 -583 c0 -7 -45 -44 -100 -81 -55 -37 -100 -70 -100 -72 0 -7 9
-1 112 68 48 32 90 58 93 58 18 0 -9 -24 -97 -83 -82 -56 -98 -64 -109 -51
-14 17 -19 12 94 101 97 75 107 81 107 60z"/>
<path d="M1501 2285 l2 -140 9 129 c7 90 6 132 -1 139 -8 8 -11 -29 -10 -128z"/>
<path d="M1538 2361 c-5 -35 -7 -91 -7 -125 2 -57 2 -56 11 29 10 110 7 193
-4 96z"/>
<path d="M1364 2375 c20 -160 29 -225 33 -221 7 7 -18 218 -28 241 -7 14 -8 9
-5 -20z"/>
<path d="M1394 2380 c3 -19 11 -78 17 -130 11 -92 19 -127 19 -81 0 50 -23
217 -32 231 -6 10 -7 4 -4 -20z"/>
<path d="M1569 2388 c-1 -13 -4 -69 -8 -125 -3 -56 -3 -99 0 -95 9 9 23 242
15 242 -3 0 -6 -10 -7 -22z"/>
<path d="M1321 2390 c0 -27 47 -246 48 -226 2 28 -30 209 -40 226 -7 13 -8 13
-8 0z"/>
<path d="M1661 2279 c-12 -66 -20 -123 -18 -125 2 -3 14 46 26 107 12 61 25
117 28 125 3 8 1 14 -4 14 -5 0 -20 -54 -32 -121z"/>
<path d="M1691 2271 c-18 -68 -30 -125 -28 -127 6 -7 69 225 65 238 -2 6 -19
-44 -37 -111z"/>
<path d="M1203 2360 c36 -122 71 -229 74 -226 6 6 -53 202 -67 223 -8 12 -10
13 -7 3z"/>
<path d="M1175 2313 c9 -21 30 -72 47 -113 17 -41 35 -79 40 -85 5 -5 1 13
-10 40 -57 145 -75 186 -84 191 -5 3 -2 -11 7 -33z"/>
<path d="M1100 2322 c0 -14 107 -232 115 -232 5 0 -49 121 -88 195 -14 28 -26
44 -27 37z"/>
<path d="M1858 2268 c-15 -35 -38 -90 -53 -123 -15 -33 -22 -55 -16 -49 16 15
111 234 102 234 -4 0 -19 -28 -33 -62z"/>
<path d="M1864 2208 c-55 -126 -63 -146 -38 -103 34 60 103 215 96 215 -5 0
-31 -50 -58 -112z"/>
<path d="M1935 2268 c-10 -18 -38 -71 -63 -118 -25 -47 -40 -80 -35 -75 18 17
125 216 120 222 -3 3 -13 -10 -22 -29z"/>
<path d="M1000 2274 c0 -9 141 -224 147 -224 3 0 -1 10 -9 23 -8 12 -40 64
-72 115 -55 86 -66 101 -66 86z"/>
<path d="M1940 2208 c-109 -174 -116 -198 -13 -43 75 113 76 115 66 115 -4 0
-28 -33 -53 -72z"/>
<path d="M1955 2173 c-31 -48 -64 -97 -72 -110 -8 -13 -13 -23 -10 -23 5 0
118 163 136 198 26 49 -1 17 -54 -65z"/>
<path d="M1995 2123 c-77 -106 -88 -123 -82 -123 5 0 108 132 146 188 12 17
19 32 14 32 -4 -1 -39 -44 -78 -97z"/>
<path d="M921 2194 c95 -115 163 -194 167 -194 6 0 2 5 -88 115 -40 50 -78 92
-84 94 -6 2 -4 -5 5 -15z"/>
<path d="M770 2076 c0 -5 180 -140 200 -150 20 -10 -30 33 -116 99 -65 50 -84
62 -84 51z"/>
<path d="M760 2046 c0 -4 178 -138 200 -150 28 -16 -10 17 -102 87 -80 62 -98
73 -98 63z"/>
<path d="M735 2013 c9 -9 168 -116 203 -137 6 -4 12 -5 12 -2 0 7 -186 135
-207 143 -12 4 -15 3 -8 -4z"/>
<path d="M726 1981 c8 -8 174 -119 202 -135 6 -4 12 -5 12 -2 0 7 -207 146
-217 146 -4 0 -3 -4 3 -9z"/>
<path d="M730 1932 c68 -43 200 -114 200 -108 0 6 -224 136 -236 136 -5 0 11
-13 36 -28z"/>
<path d="M785 1864 c61 -29 115 -53 120 -53 12 1 -206 108 -220 107 -5 0 40
-24 100 -54z"/>
<path d="M778 1834 c63 -30 116 -54 118 -51 4 4 -188 96 -216 103 -8 2 36 -21
98 -52z"/>
<path d="M1650 1863 c-8 -3 -23 -12 -32 -20 -11 -10 -22 -12 -35 -5 -57 29
-201 4 -285 -49 -91 -59 -140 -148 -146 -269 -5 -109 19 -177 88 -253 168
-183 463 -139 566 85 25 55 29 74 29 153 0 63 -6 102 -18 129 l-17 38 -37 -32
c-54 -47 -62 -66 -63 -147 0 -47 -4 -73 -11 -73 -8 0 -8 -4 -2 -12 11 -15 -2
-78 -17 -78 -14 0 -19 28 -19 108 0 106 -22 173 -71 215 -23 19 -40 43 -40 55
0 12 19 39 45 63 25 24 44 48 41 55 -11 27 80 33 119 8 29 -19 34 -67 9 -102
-18 -27 -4 -29 19 -4 10 10 17 35 17 54 0 62 -74 105 -140 81z m-110 -53 c20
-13 8 -21 -31 -22 -82 0 -159 -39 -159 -79 0 -30 47 -57 108 -64 100 -11 124
-31 136 -114 7 -45 7 -45 -14 -26 -11 10 -20 14 -20 8 0 -5 11 -19 25 -31 36
-31 32 -59 -7 -53 -14 2 -8 -18 12 -41 12 -13 33 -38 48 -57 26 -31 30 -32 50
-20 29 18 43 64 51 165 5 59 12 89 24 101 29 29 42 2 41 -85 -1 -61 -6 -87
-27 -127 -68 -135 -210 -204 -350 -171 -103 25 -176 84 -223 184 -23 49 -26
65 -22 136 8 149 89 251 233 292 50 15 105 17 125 4z m-50 -71 c0 -8 5 -8 15
1 12 10 16 9 21 -3 11 -29 0 -52 -26 -54 -35 -3 -104 7 -121 17 -19 12 -7 21
48 36 61 16 63 16 63 3z"/>
<path d="M1526 1473 c-9 -23 12 -43 24 -23 5 8 10 21 10 28 0 18 -27 15 -34
-5z"/>
<path d="M2215 1810 c-66 -32 -117 -59 -114 -59 6 -1 205 89 234 107 52 30
-12 5 -120 -48z"/>
<path d="M660 1850 c0 -8 230 -103 236 -97 2 2 -50 26 -116 54 -66 28 -120 47
-120 43z"/>
<path d="M2315 1820 c-21 -10 -43 -16 -47 -14 -4 3 -8 0 -8 -5 0 -6 -6 -11
-13 -11 -7 0 -35 -11 -63 -24 -51 -26 -55 -34 -7 -15 15 6 37 15 48 19 11 5
46 18 78 31 31 12 57 26 57 31 0 4 -1 8 -2 7 -2 0 -21 -9 -43 -19z"/>
<path d="M646 1821 c10 -9 166 -75 204 -86 47 -14 15 3 -92 49 -108 46 -130
53 -112 37z"/>
<path d="M1815 1770 c-9 -40 -42 -80 -66 -80 -29 0 -59 18 -59 36 0 9 5 12 11
8 7 -4 10 -1 7 7 -3 8 -12 15 -21 17 -24 5 -22 -43 3 -68 26 -26 58 -25 94 3
18 15 38 22 53 19 27 -5 30 -17 7 -26 -22 -8 -8 -26 21 -26 13 0 26 -4 30 -9
16 -26 119 36 108 65 -12 32 -103 58 -118 34 -3 -5 -19 -10 -35 -10 -27 0 -29
2 -23 30 7 39 -3 39 -12 0z m165 -57 c12 -4 11 -7 -5 -13 -34 -14 -85 -12 -85
4 0 24 36 28 90 9z"/>
<path d="M2320 1784 c-25 -8 -75 -25 -112 -37 -37 -11 -65 -23 -63 -25 3 -4
56 10 88 23 10 4 17 3 17 -3 0 -6 -25 -19 -55 -28 -63 -20 -67 -31 -5 -14 47
13 57 9 38 -11 -7 -8 -13 -21 -13 -29 0 -8 -11 -16 -25 -18 -14 -2 -29 -7 -33
-12 -5 -4 4 -5 19 -2 19 3 25 1 20 -7 -4 -6 -19 -11 -34 -12 l-27 -1 25 -7
c24 -7 24 -7 5 -19 -11 -6 -16 -12 -11 -12 5 0 3 -7 -4 -15 -8 -9 -8 -15 -2
-15 6 0 20 15 31 34 21 33 23 34 108 41 48 4 96 11 108 16 15 7 10 8 -20 5
-143 -17 -168 -18 -162 -9 4 6 39 14 78 17 39 4 81 12 93 17 22 10 -1 9 -106
-7 -31 -4 -48 -3 -48 4 0 12 8 15 90 32 68 14 84 19 79 24 -2 3 -33 -2 -69 -9
-83 -18 -91 -18 -84 0 3 8 33 22 65 31 33 9 62 21 65 25 7 12 5 12 -60 -11
-36 -12 -56 -15 -54 -8 2 6 28 19 56 28 29 10 56 20 59 24 9 9 -7 6 -57 -10z"/>
<path d="M620 1773 c0 -8 237 -84 256 -82 5 0 -43 18 -106 40 -154 53 -150 51
-150 42z"/>
<path d="M610 1721 c0 -5 57 -20 126 -35 132 -29 183 -31 67 -3 -161 38 -193
45 -193 38z"/>
<path d="M600 1670 c0 -8 230 -44 237 -37 4 5 -48 15 -184 36 -29 4 -53 5 -53
1z"/>
<path d="M625 1621 c22 -5 81 -11 130 -14 59 -4 76 -3 50 3 -22 4 -80 10 -130
14 -59 3 -76 2 -50 -3z"/>
<path d="M2285 1595 l-80 -13 90 5 c50 3 97 9 105 14 21 12 -15 10 -115 -6z"/>
<path d="M625 1591 c22 -5 81 -11 130 -14 58 -4 76 -3 50 3 -22 4 -80 10 -130
13 -58 4 -76 3 -50 -2z"/>
<path d="M2260 1560 l-65 -7 65 0 c36 -1 88 2 115 7 l50 7 -50 0 c-27 0 -79
-3 -115 -7z"/>
<path d="M581 1556 c2 -2 65 -6 139 -9 84 -3 116 -2 85 3 -50 8 -232 13 -224
6z"/>
<path d="M1065 1474 c2 -53 8 -90 19 -110 10 -16 15 -22 12 -13 -7 24 -25 128
-30 169 -2 19 -2 -1 -1 -46z"/>
<path d="M2260 1530 l-65 -7 70 -1 c39 0 90 3 115 7 l45 8 -50 0 c-27 0 -79
-3 -115 -7z"/>
<path d="M581 1526 c2 -2 65 -6 139 -9 86 -3 115 -2 80 3 -56 8 -227 13 -219
6z"/>
<path d="M580 1490 c0 -9 259 -3 269 6 2 2 -57 4 -132 4 -82 0 -137 -4 -137
-10z"/>
<path d="M2212 1493 c37 -2 100 -2 140 0 40 1 10 3 -67 3 -77 0 -110 -1 -73
-3z"/>
<path d="M2185 1470 c63 -12 243 -21 220 -11 -11 4 -74 10 -140 13 -66 3 -102
2 -80 -2z"/>
<path d="M640 1460 l-65 -7 65 0 c36 0 94 3 130 7 l65 7 -65 0 c-36 0 -94 -3
-130 -7z"/>
<path d="M1900 1445 l-35 -14 33 2 c18 1 38 7 44 14 13 16 3 15 -42 -2z"/>
<path d="M2185 1440 c22 -5 83 -11 135 -14 62 -3 81 -2 55 3 -22 5 -83 11
-135 14 -60 3 -80 2 -55 -3z"/>
<path d="M648 1433 c-32 -2 -58 -7 -58 -11 0 -7 174 2 225 12 25 4 -90 3 -167
-1z"/>
<path d="M2215 1405 c101 -18 201 -28 192 -19 -7 7 -201 33 -242 32 -11 0 12
-6 50 -13z"/>
<path d="M2215 1376 c99 -19 193 -29 175 -18 -8 5 -44 12 -80 15 -36 4 -87 9
-115 11 -37 4 -31 2 20 -8z"/>
<path d="M670 1367 c-41 -6 -64 -13 -50 -14 14 -2 66 3 115 11 50 7 72 14 50
14 -22 -1 -74 -6 -115 -11z"/>
<path d="M721 1334 c-109 -23 -144 -34 -107 -34 21 0 239 50 245 56 7 7 -21 3
-138 -22z"/>
<path d="M2255 1330 c104 -27 165 -37 153 -25 -6 7 -237 56 -253 54 -5 -1 40
-14 100 -29z"/>
<path d="M1100 1327 c0 -15 28 -75 39 -81 5 -4 3 10 -5 31 -15 37 -34 64 -34
50z"/>
<path d="M2185 1309 c120 -38 195 -57 195 -50 0 7 -227 72 -245 70 -6 0 17 -9
50 -20z"/>
<path d="M736 1262 c-65 -20 -113 -38 -107 -40 11 -4 241 66 241 73 0 8 -9 6
-134 -33z"/>
<path d="M2171 1285 c11 -10 192 -76 202 -72 6 2 -35 20 -92 40 -100 36 -119
42 -110 32z"/>
<path d="M2216 1230 c104 -49 155 -69 141 -55 -8 9 -227 105 -236 104 -3 0 40
-22 95 -49z"/>
<path d="M755 1236 c-116 -37 -143 -48 -97 -40 41 7 233 73 212 72 -8 0 -60
-15 -115 -32z"/>
<path d="M752 1202 c-62 -26 -109 -48 -104 -50 8 -2 220 84 231 94 11 11 -24
-1 -127 -44z"/>
<path d="M2111 1246 c4 -5 179 -82 219 -98 16 -6 21 -6 15 0 -5 6 -58 31 -116
56 -97 42 -130 53 -118 42z"/>
<path d="M771 1175 c-61 -30 -111 -57 -111 -60 0 -4 3 -4 8 -2 4 2 55 27 115
55 59 28 107 54 107 57 0 8 -2 7 -119 -50z"/>
<path d="M2214 1164 c59 -30 110 -53 113 -50 5 4 -204 107 -216 105 -3 0 43
-25 103 -55z"/>
<path d="M786 1150 c-54 -27 -104 -54 -110 -60 -9 -10 211 95 223 106 14 13
-27 -4 -113 -46z"/>
<path d="M2194 1139 c65 -33 121 -58 124 -55 5 6 -220 116 -235 115 -4 0 45
-27 111 -60z"/>
<path d="M865 1154 c-100 -52 -176 -96 -172 -100 5 -5 227 115 227 122 0 6 0
6 -55 -22z"/>
<path d="M2074 1164 c3 -18 202 -161 211 -152 3 2 -42 35 -100 73 -58 38 -103
70 -101 73 3 2 49 -22 103 -53 54 -32 101 -60 106 -62 4 -2 7 -1 7 4 0 4 -17
17 -38 28 -20 12 -71 40 -114 63 -59 33 -76 39 -74 26z"/>
<path d="M829 1105 c-53 -30 -103 -63 -110 -72 -13 -17 -13 -17 11 -2 14 9 64
40 113 69 48 29 87 54 87 56 0 6 0 6 -101 -51z"/>
<path d="M900 1118 c-133 -84 -172 -110 -168 -114 4 -4 180 106 203 127 16 15
2 10 -35 -13z"/>
<path d="M2065 1122 c20 -20 199 -141 204 -137 6 6 11 2 -94 72 -102 67 -125
81 -110 65z"/>
<path d="M852 1049 c-57 -39 -101 -73 -99 -76 5 -4 207 135 207 143 0 7 -3 5
-108 -67z"/>
<path d="M2030 1116 c0 -3 44 -38 98 -79 107 -81 122 -90 122 -83 0 5 -74 62
-167 130 -29 21 -53 35 -53 32z"/>
<path d="M925 1064 c-94 -63 -166 -116 -162 -120 5 -5 207 135 207 142 0 7 -4
5 -45 -22z"/>
<path d="M2027 1079 c7 -9 11 -18 8 -21 -5 -5 137 -137 165 -153 32 -19 -14
27 -88 87 -40 33 -71 62 -68 65 3 3 44 -25 91 -62 48 -36 89 -64 91 -62 5 4
-55 51 -156 123 -30 21 -49 31 -43 23z"/>
<path d="M900 1011 c-47 -37 -92 -76 -100 -87 -14 -18 -14 -18 5 -4 40 30 185
152 185 156 0 7 -4 4 -90 -65z"/>
<path d="M905 976 c-49 -46 -88 -87 -84 -90 3 -3 45 35 94 84 49 50 87 90 85
90 -3 0 -45 -38 -95 -84z"/>
<path d="M2085 972 c49 -51 91 -92 92 -92 13 0 -23 40 -95 105 l-87 78 90 -91z"/>
<path d="M925 950 c-49 -49 -87 -90 -85 -90 10 1 194 180 184 180 -5 0 -50
-40 -99 -90z"/>
<path d="M2065 950 c49 -49 92 -90 95 -90 2 0 -36 41 -85 90 -49 50 -92 90
-95 90 -2 0 36 -40 85 -90z"/>
<path d="M1980 995 c49 -60 152 -166 157 -162 2 3 -40 49 -93 103 -53 55 -82
81 -64 59z"/>
<path d="M954 935 c-44 -47 -81 -91 -83 -98 -2 -7 3 -6 11 3 134 141 161 171
156 176 -3 3 -41 -34 -84 -81z"/>
<path d="M976 911 c-47 -49 -86 -92 -86 -97 0 -5 36 29 80 76 43 47 79 80 80
74 0 -6 -7 -17 -15 -24 -26 -21 -118 -141 -113 -146 3 -2 32 30 64 72 32 42
67 87 77 100 10 12 14 25 9 28 -5 3 -48 -34 -96 -83z"/>
<path d="M1957 978 c30 -42 153 -171 158 -166 2 2 -36 47 -86 99 -50 51 -82
82 -72 67z"/>
<path d="M1024 888 c-37 -51 -71 -99 -77 -105 -5 -8 -6 -13 0 -13 5 0 41 47
81 105 40 58 70 105 68 105 -2 0 -35 -42 -72 -92z"/>
<path d="M1916 958 c20 -34 136 -198 140 -198 3 0 2 6 -2 13 -15 26 -137 197
-141 197 -2 0 -1 -6 3 -12z"/>
<path d="M1093 933 c-96 -131 -125 -174 -121 -179 5 -4 108 137 142 194 13 22
0 12 -21 -15z"/>
<path d="M1949 857 c39 -58 76 -109 82 -113 7 -4 -21 41 -61 100 -41 59 -78
110 -83 113 -5 3 23 -42 62 -100z"/>
<path d="M1952 943 c8 -10 41 -51 72 -91 32 -40 60 -71 63 -68 5 5 -134 176
-144 176 -3 0 1 -8 9 -17z"/>
<path d="M1092 878 c-65 -99 -95 -148 -88 -148 6 0 38 48 119 178 45 70 21 47
-31 -30z"/>
<path d="M1887 898 c15 -24 46 -74 70 -113 24 -38 43 -64 43 -57 0 14 -126
212 -135 212 -3 0 7 -19 22 -42z"/>
<path d="M1101 836 c-54 -83 -85 -141 -69 -126 5 4 80 123 132 208 4 6 5 12 3
12 -3 0 -32 -42 -66 -94z"/>
<path d="M1871 873 c47 -82 99 -163 105 -163 6 0 10 -6 -65 118 -67 109 -94
140 -40 45z"/>
<path d="M1116 804 c-31 -58 -55 -108 -53 -111 3 -2 30 44 61 103 31 59 54
109 53 111 -2 1 -29 -45 -61 -103z"/>
<path d="M1153 813 c-56 -122 -68 -152 -54 -137 13 12 112 234 105 234 -3 0
-26 -44 -51 -97z"/>
<path d="M1825 837 c52 -114 86 -179 91 -174 5 5 -113 247 -121 247 -2 0 11
-33 30 -73z"/>
<path d="M1863 828 c25 -46 52 -98 62 -116 9 -19 19 -31 22 -28 6 5 -115 226
-124 226 -2 0 15 -37 40 -82z"/>
<path d="M1176 788 c-58 -124 -63 -136 -48 -123 12 12 103 217 98 222 -1 2
-24 -43 -50 -99z"/>
<path d="M1222 818 c-54 -130 -65 -159 -60 -163 2 -3 25 48 51 112 26 64 45
118 43 120 -2 2 -17 -29 -34 -69z"/>
<path d="M1771 889 c-1 -12 111 -240 116 -236 2 3 -23 58 -56 123 -33 66 -60
116 -60 113z"/>
<path d="M1750 876 c0 -12 92 -231 101 -241 17 -18 9 8 -42 124 -51 115 -59
131 -59 117z"/>
<path d="M1705 848 c14 -43 66 -213 71 -227 2 -8 7 -11 10 -8 6 6 -74 257 -83
257 -2 0 -1 -10 2 -22z"/>
<path d="M1242 788 c-17 -40 -38 -90 -46 -110 -9 -21 -13 -38 -8 -38 8 0 94
211 88 217 -2 2 -17 -29 -34 -69z"/>
<path d="M1266 748 c-34 -107 -43 -148 -31 -136 8 8 75 241 71 246 -3 2 -21
-47 -40 -110z"/>
<path d="M1311 773 c-24 -104 -36 -180 -27 -172 8 7 57 251 52 256 -2 3 -13
-35 -25 -84z"/>
<path d="M1741 846 c-2 -17 61 -211 71 -221 12 -12 10 -5 -36 130 -19 55 -35
96 -35 91z"/>
<path d="M1537 715 c3 -71 7 -132 9 -134 11 -12 11 16 -1 134 l-14 130 6 -130z"/>
<path d="M1567 725 c3 -66 9 -127 14 -135 9 -16 3 86 -12 195 -5 41 -6 21 -2
-60z"/>
<path d="M1621 820 c-1 -36 26 -230 33 -237 9 -9 6 20 -14 147 -10 63 -18 104
-19 90z"/>
<path d="M1651 830 c-2 -26 41 -240 48 -240 4 0 -3 48 -15 108 -29 141 -31
150 -33 132z"/>
<path d="M1341 714 c-12 -64 -20 -119 -17 -122 3 -2 7 1 10 9 9 33 37 221 33
225 -2 3 -14 -48 -26 -112z"/>
<path d="M1591 817 c-1 -23 20 -207 25 -226 3 -8 7 -12 9 -9 3 2 -2 56 -11
119 -15 116 -22 148 -23 116z"/>
<path d="M1680 826 c0 -23 53 -213 62 -221 7 -7 8 -4 5 10 -60 212 -67 235
-67 211z"/>
<path d="M1381 720 c-12 -112 -13 -166 -1 -105 11 53 24 205 18 205 -3 0 -10
-45 -17 -100z"/>
<path d="M1412 718 c-13 -114 -14 -165 -2 -103 10 51 24 205 18 205 -2 0 -10
-46 -16 -102z"/>
<path d="M1449 784 c0 -21 -4 -76 -7 -121 -4 -46 -4 -83 -1 -83 8 0 22 230 15
238 -3 3 -6 -12 -7 -34z"/>
<path d="M1475 718 c-4 -57 -5 -114 -3 -128 2 -14 7 30 12 98 4 68 6 126 3
128 -3 3 -8 -41 -12 -98z"/>
<path d="M1501 708 c1 -18 4 -58 9 -88 7 -53 7 -52 9 33 0 52 -3 87 -9 87 -5
0 -10 -15 -9 -32z"/>
</g>
</svg>
